<?xml version="1.0" encoding="UTF-8" standalone="no"?>
<!DOCTYPE svg PUBLIC "-//W3C//DTD SVG 1.1//EN"
 "http://www.w3.org/Graphics/SVG/1.1/DTD/svg11.dtd">
<!-- Generated by graphviz version 2.40.1 (20161225.0304)
 -->
<!-- Title: packages Pages: 1 -->
<svg width="646pt" height="332pt"
 viewBox="0.00 0.00 645.69 332.00" xmlns="http://www.w3.org/2000/svg" xmlns:xlink="http://www.w3.org/1999/xlink">
<g id="graph0" class="graph" transform="scale(1 1) rotate(0) translate(4 328)">
<title>packages</title>
<polygon fill="#ffffff" stroke="transparent" points="-4,4 -4,-328 641.6873,-328 641.6873,4 -4,4"/>
<!-- pyfall -->
<g id="node1" class="node">
<title>pyfall</title>
<polygon fill="#f0f8ff" stroke="#f0f8ff" points="54,-36 0,-36 0,0 54,0 54,-36"/>
<text text-anchor="middle" x="27" y="-13.8" font-family="Times,serif" font-size="14.00" fill="#000000">pyfall</text>
</g>
<!-- pyfall.api -->
<g id="node2" class="node">
<title>pyfall.api</title>
<polygon fill="#f0f8ff" stroke="#f0f8ff" points="334.7621,-252 265.2379,-252 265.2379,-216 334.7621,-216 334.7621,-252"/>
<text text-anchor="middle" x="300" y="-229.8" font-family="Times,serif" font-size="14.00" fill="#000000">pyfall.api</text>
</g>
<!-- pyfall.errors -->
<g id="node3" class="node">
<title>pyfall.errors</title>
<polygon fill="#f0f8ff" stroke="#f0f8ff" points="248.2976,-324 163.7024,-324 163.7024,-288 248.2976,-288 248.2976,-324"/>
<text text-anchor="middle" x="206" y="-301.8" font-family="Times,serif" font-size="14.00" fill="#000000">pyfall.errors</text>
</g>
<!-- pyfall.api&#45;&gt;pyfall.errors -->
<g id="edge1" class="edge">
<title>pyfall.api&#45;&gt;pyfall.errors</title>
<path fill="none" stroke="#000000" d="M276.2798,-252.1686C264.5906,-261.1221 250.3312,-272.0442 237.7191,-281.7045"/>
<polygon fill="#000000" stroke="#000000" points="229.7126,-287.8372 234.915,-278.1839 233.682,-284.7968 237.6514,-281.7564 237.6514,-281.7564 237.6514,-281.7564 233.682,-284.7968 240.3877,-285.3288 229.7126,-287.8372 229.7126,-287.8372"/>
</g>
<!-- pyfall.scryfall -->
<g id="node4" class="node">
<title>pyfall.scryfall</title>
<polygon fill="#faebd7" stroke="#faebd7" points="612.1327,-36 517.8673,-36 517.8673,0 612.1327,0 612.1327,-36"/>
<text text-anchor="middle" x="565" y="-13.8" font-family="Times,serif" font-size="14.00" fill="#000000">pyfall.scryfall</text>
</g>
<!-- pyfall.scryfall.bulkdata -->
<g id="node5" class="node">
<title>pyfall.scryfall.bulkdata</title>
<polygon fill="#faebd7" stroke="#faebd7" points="499.8431,-36 354.1569,-36 354.1569,0 499.8431,0 499.8431,-36"/>
<text text-anchor="middle" x="427" y="-13.8" font-family="Times,serif" font-size="14.00" fill="#000000">pyfall.scryfall.bulkdata</text>
</g>
<!-- pyfall.scryobject -->
<g id="node8" class="node">
<title>pyfall.scryobject</title>
<polygon fill="#7fffd4" stroke="#7fffd4" points="383.687,-108 274.313,-108 274.313,-72 383.687,-72 383.687,-108"/>
<text text-anchor="middle" x="329" y="-85.8" font-family="Times,serif" font-size="14.00" fill="#000000">pyfall.scryobject</text>
</g>
<!-- pyfall.scryfall.bulkdata&#45;&gt;pyfall.scryobject -->
<g id="edge2" class="edge">
<title>pyfall.scryfall.bulkdata&#45;&gt;pyfall.scryobject</title>
<path fill="none" stroke="#000000" d="M402.2705,-36.1686C390.0838,-45.1221 375.2177,-56.0442 362.0688,-65.7045"/>
<polygon fill="#000000" stroke="#000000" points="353.7216,-71.8372 359.1161,-62.2899 357.751,-68.8768 361.7805,-65.9164 361.7805,-65.9164 361.7805,-65.9164 357.751,-68.8768 364.4448,-69.5428 353.7216,-71.8372 353.7216,-71.8372"/>
</g>
<!-- pyfall.scryfall.cards -->
<g id="node6" class="node">
<title>pyfall.scryfall.cards</title>
<polygon fill="#faebd7" stroke="#faebd7" points="199.6671,-36 72.3329,-36 72.3329,0 199.6671,0 199.6671,-36"/>
<text text-anchor="middle" x="136" y="-13.8" font-family="Times,serif" font-size="14.00" fill="#000000">pyfall.scryfall.cards</text>
</g>
<!-- pyfall.scryfall.cards&#45;&gt;pyfall.errors -->
<g id="edge3" class="edge">
<title>pyfall.scryfall.cards&#45;&gt;pyfall.errors</title>
<path fill="none" stroke="#000000" d="M130.0064,-36.0169C117.4753,-77.0694 92.626,-179.5973 130,-252 136.2712,-264.1489 146.6782,-274.1597 157.8089,-282.1206"/>
<polygon fill="#000000" stroke="#000000" points="166.4052,-287.8102 155.5826,-286.0434 162.2358,-285.0505 158.0663,-282.2909 158.0663,-282.2909 158.0663,-282.2909 162.2358,-285.0505 160.55,-278.5384 166.4052,-287.8102 166.4052,-287.8102"/>
</g>
<!-- pyfall.scryfall.cards&#45;&gt;pyfall.scryobject -->
<g id="edge4" class="edge">
<title>pyfall.scryfall.cards&#45;&gt;pyfall.scryobject</title>
<path fill="none" stroke="#000000" d="M184.702,-36.1686C210.9736,-45.9694 243.5683,-58.1291 271.1284,-68.4106"/>
<polygon fill="#000000" stroke="#000000" points="280.6482,-71.962 269.706,-72.6828 275.9635,-70.2143 271.2789,-68.4667 271.2789,-68.4667 271.2789,-68.4667 275.9635,-70.2143 272.8518,-64.2505 280.6482,-71.962 280.6482,-71.962"/>
</g>
<!-- pyfall.util -->
<g id="node12" class="node">
<title>pyfall.util</title>
<polygon fill="#f0f8ff" stroke="#f0f8ff" points="209.3284,-252 138.6716,-252 138.6716,-216 209.3284,-216 209.3284,-252"/>
<text text-anchor="middle" x="174" y="-229.8" font-family="Times,serif" font-size="14.00" fill="#000000">pyfall.util</text>
</g>
<!-- pyfall.scryfall.cards&#45;&gt;pyfall.util -->
<g id="edge5" class="edge">
<title>pyfall.scryfall.cards&#45;&gt;pyfall.util</title>
<path fill="none" stroke="#000000" d="M139.1745,-36.0445C145.7965,-73.6856 161.1246,-160.8133 169.0522,-205.8754"/>
<polygon fill="#000000" stroke="#000000" points="170.8078,-215.8549 164.6431,-206.7859 169.9414,-210.9306 169.0751,-206.0062 169.0751,-206.0062 169.0751,-206.0062 169.9414,-210.9306 173.507,-205.2264 170.8078,-215.8549 170.8078,-215.8549"/>
</g>
<!-- pyfall.scryfall.sets -->
<g id="node7" class="node">
<title>pyfall.scryfall.sets</title>
<polygon fill="#faebd7" stroke="#faebd7" points="336.1276,-36 217.8724,-36 217.8724,0 336.1276,0 336.1276,-36"/>
<text text-anchor="middle" x="277" y="-13.8" font-family="Times,serif" font-size="14.00" fill="#000000">pyfall.scryfall.sets</text>
</g>
<!-- pyfall.scryfall.sets&#45;&gt;pyfall.scryobject -->
<g id="edge6" class="edge">
<title>pyfall.scryfall.sets&#45;&gt;pyfall.scryobject</title>
<path fill="none" stroke="#000000" d="M290.1218,-36.1686C296.0499,-44.3768 303.1729,-54.2394 309.6933,-63.2677"/>
<polygon fill="#000000" stroke="#000000" points="315.7015,-71.5867 306.1985,-66.1146 312.7741,-67.5333 309.8466,-63.4799 309.8466,-63.4799 309.8466,-63.4799 312.7741,-67.5333 313.4946,-60.8452 315.7015,-71.5867 315.7015,-71.5867"/>
</g>
<!-- pyfall.scryfall.sets&#45;&gt;pyfall.util -->
<g id="edge7" class="edge">
<title>pyfall.scryfall.sets&#45;&gt;pyfall.util</title>
<path fill="none" stroke="#000000" d="M268.3954,-36.0445C250.3326,-73.9238 208.3724,-161.9182 187.0057,-206.726"/>
<polygon fill="#000000" stroke="#000000" points="182.6525,-215.8549 182.8949,-204.8917 184.8046,-211.3418 186.9568,-206.8286 186.9568,-206.8286 186.9568,-206.8286 184.8046,-211.3418 191.0186,-208.7656 182.6525,-215.8549 182.6525,-215.8549"/>
</g>
<!-- pyfall.scryobject.scryobject -->
<g id="node11" class="node">
<title>pyfall.scryobject.scryobject</title>
<polygon fill="#7fffd4" stroke="#7fffd4" points="473.217,-180 302.783,-180 302.783,-144 473.217,-144 473.217,-180"/>
<text text-anchor="middle" x="388" y="-157.8" font-family="Times,serif" font-size="14.00" fill="#000000">pyfall.scryobject.scryobject</text>
</g>
<!-- pyfall.scryobject&#45;&gt;pyfall.scryobject.scryobject -->
<g id="edge8" class="edge">
<title>pyfall.scryobject&#45;&gt;pyfall.scryobject.scryobject</title>
<path fill="none" stroke="#000000" d="M343.8882,-108.1686C350.753,-116.546 359.0301,-126.6469 366.5511,-135.8251"/>
<polygon fill="#000000" stroke="#000000" points="372.9114,-143.5867 363.0924,-138.7041 369.7422,-139.7193 366.5731,-135.8519 366.5731,-135.8519 366.5731,-135.8519 369.7422,-139.7193 370.0538,-132.9997 372.9114,-143.5867 372.9114,-143.5867"/>
</g>
<!-- pyfall.scryobject.scrycard -->
<g id="node9" class="node">
<title>pyfall.scryobject.scrycard</title>
<polygon fill="#7fffd4" stroke="#7fffd4" points="513.0967,-252 352.9033,-252 352.9033,-216 513.0967,-216 513.0967,-252"/>
<text text-anchor="middle" x="433" y="-229.8" font-family="Times,serif" font-size="14.00" fill="#000000">pyfall.scryobject.scrycard</text>
</g>
<!-- pyfall.scryobject.scryclasses -->
<g id="node10" class="node">
<title>pyfall.scryobject.scryclasses</title>
<polygon fill="#7fffd4" stroke="#7fffd4" points="637.875,-324 462.125,-324 462.125,-288 637.875,-288 637.875,-324"/>
<text text-anchor="middle" x="550" y="-301.8" font-family="Times,serif" font-size="14.00" fill="#000000">pyfall.scryobject.scryclasses</text>
</g>
<!-- pyfall.scryobject.scrycard&#45;&gt;pyfall.scryobject.scryclasses -->
<g id="edge9" class="edge">
<title>pyfall.scryobject.scrycard&#45;&gt;pyfall.scryobject.scryclasses</title>
<path fill="none" stroke="#000000" d="M462.524,-252.1686C477.4891,-261.3779 495.8386,-272.6699 511.8603,-282.5294"/>
<polygon fill="#000000" stroke="#000000" points="520.4854,-287.8372 509.6103,-286.4286 516.2271,-285.2167 511.9688,-282.5962 511.9688,-282.5962 511.9688,-282.5962 516.2271,-285.2167 514.3273,-278.7637 520.4854,-287.8372 520.4854,-287.8372"/>
</g>
<!-- pyfall.scryobject.scrycard&#45;&gt;pyfall.scryobject.scryobject -->
<g id="edge10" class="edge">
<title>pyfall.scryobject.scrycard&#45;&gt;pyfall.scryobject.scryobject</title>
<path fill="none" stroke="#000000" d="M427.4677,-215.5867C423.1053,-207.346 417.1225,-197.4755 411.075,-188.464"/>
<polygon fill="#000000" stroke="#000000" points="405.3078,-180.1686 414.7109,-185.8106 408.162,-184.274 411.0161,-188.3793 411.0161,-188.3793 411.0161,-188.3793 408.162,-184.274 407.3213,-190.9481 405.3078,-180.1686 405.3078,-180.1686"/>
</g>
<!-- pyfall.scryobject.scryclasses&#45;&gt;pyfall.scryobject.scryobject -->
<g id="edge11" class="edge">
<title>pyfall.scryobject.scryclasses&#45;&gt;pyfall.scryobject.scryobject</title>
<path fill="none" stroke="#000000" d="M555.4235,-287.8564C555.7175,-267.8865 549.4097,-235.9738 531,-216 517.9721,-201.8652 500.7347,-191.3538 482.7345,-183.5632"/>
<polygon fill="#000000" stroke="#000000" points="473.2702,-179.7324 484.2281,-179.3131 477.9049,-181.6084 482.5397,-183.4844 482.5397,-183.4844 482.5397,-183.4844 477.9049,-181.6084 480.8513,-187.6557 473.2702,-179.7324 473.2702,-179.7324"/>
</g>
<!-- pyfall.scryobject.scryobject&#45;&gt;pyfall.api -->
<g id="edge12" class="edge">
<title>pyfall.scryobject.scryobject&#45;&gt;pyfall.api</title>
<path fill="none" stroke="#000000" d="M365.7939,-180.1686C354.955,-189.0368 341.7556,-199.8363 330.0322,-209.4282"/>
<polygon fill="#000000" stroke="#000000" points="322.199,-215.8372 327.089,-206.0219 326.0688,-212.671 329.9386,-209.5048 329.9386,-209.5048 329.9386,-209.5048 326.0688,-212.671 332.7882,-212.9876 322.199,-215.8372 322.199,-215.8372"/>
</g>
<!-- pyfall.scryobject.scryobject&#45;&gt;pyfall.errors -->
<g id="edge13" class="edge">
<title>pyfall.scryobject.scryobject&#45;&gt;pyfall.errors</title>
<path fill="none" stroke="#000000" d="M319.6182,-180.0366C297.5024,-188.3211 274.0535,-199.9729 256,-216 237.0178,-232.8515 223.7096,-258.7014 215.6214,-278.3812"/>
<polygon fill="#000000" stroke="#000000" points="211.9667,-287.7544 211.4069,-276.8028 213.7831,-283.0959 215.5995,-278.4375 215.5995,-278.4375 215.5995,-278.4375 213.7831,-283.0959 219.7921,-280.0722 211.9667,-287.7544 211.9667,-287.7544"/>
</g>
<!-- pyfall.scryobject.scryobject&#45;&gt;pyfall.scryobject.scrycard -->
<g id="edge14" class="edge">
<title>pyfall.scryobject.scryobject&#45;&gt;pyfall.scryobject.scrycard</title>
<path fill="none" stroke="#000000" d="M393.403,-180.1686C397.7332,-188.3768 403.6991,-198.2394 409.7452,-207.2677"/>
<polygon fill="#000000" stroke="#000000" points="415.5157,-215.5867 406.1185,-209.9348 412.6659,-211.4784 409.8161,-207.37 409.8161,-207.37 409.8161,-207.37 412.6659,-211.4784 413.5136,-204.8051 415.5157,-215.5867 415.5157,-215.5867"/>
</g>
<!-- pyfall.scryobject.scryobject&#45;&gt;pyfall.scryobject.scryclasses -->
<g id="edge15" class="edge">
<title>pyfall.scryobject.scryobject&#45;&gt;pyfall.scryobject.scryclasses</title>
<path fill="none" stroke="#000000" d="M456.7374,-180.0026C477.0657,-188.0578 497.8712,-199.5857 513,-216 528.6051,-232.931 535.5147,-258.4402 540.0678,-277.9825"/>
<polygon fill="#000000" stroke="#000000" points="542.3312,-287.8564 535.7105,-279.1147 541.214,-282.9828 540.0968,-278.1092 540.0968,-278.1092 540.0968,-278.1092 541.214,-282.9828 544.483,-277.1038 542.3312,-287.8564 542.3312,-287.8564"/>
</g>
<!-- pyfall.scryobject.scryobject&#45;&gt;pyfall.util -->
<g id="edge16" class="edge">
<title>pyfall.scryobject.scryobject&#45;&gt;pyfall.util</title>
<path fill="none" stroke="#000000" d="M330.9413,-180.119C299.0868,-190.3734 258.7344,-203.5935 223,-216 221.772,-216.4264 220.5277,-216.8614 219.2729,-217.3029"/>
<polygon fill="#000000" stroke="#000000" points="209.5409,-220.7748 217.4475,-213.1763 214.2502,-219.0947 218.9595,-217.4147 218.9595,-217.4147 218.9595,-217.4147 214.2502,-219.0947 220.4716,-221.6531 209.5409,-220.7748 209.5409,-220.7748"/>
</g>
<!-- pyfall.util&#45;&gt;pyfall.errors -->
<g id="edge17" class="edge">
<title>pyfall.util&#45;&gt;pyfall.errors</title>
<path fill="none" stroke="#000000" d="M182.075,-252.1686C185.6102,-260.1229 189.836,-269.631 193.7456,-278.4277"/>
<polygon fill="#000000" stroke="#000000" points="197.8163,-287.5867 189.6427,-280.2763 195.7856,-283.0177 193.7549,-278.4486 193.7549,-278.4486 193.7549,-278.4486 195.7856,-283.0177 197.867,-276.621 197.8163,-287.5867 197.8163,-287.5867"/>
</g>
</g>
</svg>
